<svg xmlns="http://www.w3.org/2000/svg" version="1.0" preserveAspectRatio="xMidYMid meet"
    viewBox="36.16 34.19 576.72 75.81">

    <g transform="translate(0.000000,144.000000) scale(0.100000,-0.100000)" fill="#000000"
        stroke="none">
        <path
            d="M3647 1008 c-30 -51 -120 -205 -199 -343 -80 -137 -155 -267 -168 -287 l-22 -38 441 0 c243 0 441 2 441 4 0 5 -429 748 -435 754 -2 2 -28 -38 -58 -90z" />
        <path
            d="M1829 1037 c-57 -21 -97 -54 -126 -105 -28 -46 -28 -50 -28 -212 0 -152 2 -168 22 -207 45 -84 123 -122 250 -123 148 0 245 59 272 165 15 59 14 188 -1 203 -17 17 -269 17 -286 0 -7 -7 -12 -36 -12 -65 0 -62 13 -73 84 -73 47 0 54 -7 36 -40 -13 -24 -82 -43 -121 -35 -56 13 -69 44 -69 171 0 131 9 159 57 175 61 20 118 -3 136 -54 4 -9 13 -20 22 -23 18 -7 130 32 146 52 19 23 -39 113 -96 149 -44 27 -57 30 -149 32 -67 2 -113 -1 -137 -10z" />
        <path
            d="M365 1028 c-3 -7 -4 -150 -3 -318 l3 -305 80 0 80 0 2 110 c2 76 -3 137 -15 198 -18 89 -15 104 8 32 7 -22 32 -79 56 -127 l44 -88 64 0 63 0 43 87 c23 49 49 106 58 128 24 64 32 63 15 -1 -12 -41 -17 -102 -17 -199 l-1 -140 80 0 80 0 0 315 0 315 -78 0 -79 0 -81 -157 -82 -156 -80 156 -80 157 -78 3 c-56 2 -79 -1 -82 -10z" />
        <path
            d="M1116 1024 c-3 -8 -6 -147 -6 -308 0 -214 3 -295 12 -304 9 -9 73 -12 225 -12 241 0 233 -3 233 84 0 71 -10 76 -161 76 l-130 0 3 43 3 42 110 5 110 5 0 70 0 70 -112 3 -113 3 0 39 0 40 129 0 c99 0 131 3 140 14 7 9 11 40 9 78 l-3 63 -221 3 c-196 2 -222 0 -228 -14z" />
        <path
            d="M2535 1031 c-17 -28 -224 -615 -219 -622 8 -14 148 -11 166 4 9 6 21 29 28 50 l12 37 98 0 98 0 12 -37 c18 -55 33 -63 122 -63 74 0 78 1 77 23 0 12 -49 155 -108 317 l-107 295 -86 3 c-50 2 -89 -1 -93 -7z m119 -310 c27 -73 23 -81 -34 -81 -58 0 -58 0 -30 88 11 35 20 78 20 96 0 55 15 51 22 -6 4 -29 14 -73 22 -97z" />
        <path
            d="M4462 1028 c-12 -16 -222 -595 -222 -614 0 -11 18 -14 78 -14 42 0 83 4 89 8 7 4 19 26 26 47 l14 40 100 3 101 3 7 -28 c15 -65 28 -73 115 -73 44 0 82 5 85 10 7 11 -199 595 -217 618 -7 8 -38 12 -88 12 -50 0 -81 -4 -88 -12z m122 -323 c9 -27 16 -53 16 -57 0 -9 -94 -11 -102 -3 -3 3 6 42 19 86 12 45 23 98 24 118 1 29 3 24 14 -29 8 -36 21 -87 29 -115z" />
        <path
            d="M4970 1021 c-16 -30 -14 -582 3 -605 10 -14 25 -16 87 -14 l75 3 3 103 3 102 28 0 c36 0 53 -19 95 -112 19 -42 44 -82 55 -87 32 -17 170 -14 177 4 3 8 -19 62 -50 119 -53 100 -55 106 -36 116 11 6 31 31 46 56 47 80 33 216 -27 274 -54 52 -91 60 -276 60 -160 0 -173 -1 -183 -19z m314 -157 c20 -19 20 -54 2 -79 -11 -16 -27 -20 -78 -20 l-63 0 -3 58 -3 57 65 0 c45 0 69 -5 80 -16z" />
        <path
            d="M5617 1034 c-4 -4 -7 -38 -7 -75 0 -78 1 -79 101 -79 l69 0 2 -237 3 -238 73 -3 c46 -2 79 2 88 9 11 9 14 56 14 240 l0 229 74 0 c91 0 98 7 94 92 l-3 63 -251 3 c-138 1 -253 -1 -257 -4z" />
        <path
            d="M3307 798 c-30 -51 -96 -165 -147 -253 -51 -88 -99 -170 -106 -182 l-14 -23 72 0 73 0 120 207 c66 115 121 213 123 219 2 9 -48 106 -63 122 -2 2 -28 -38 -58 -90z" />
    </g>
</svg>